<mxfile host="app.diagrams.net" modified="2021-05-20T11:16:57.538Z" agent="5.0 (Windows NT 10.0; WOW64) AppleWebKit/537.36 (KHTML, like Gecko) Chrome/90.0.4430.212 Safari/537.36" etag="ppkRKXUDQUH2aC-W9IEi" version="14.6.13" type="github">
  <diagram id="0uMvrWpQkgOffhEk1B4T" name="Page-1">
    <mxGraphModel dx="1422" dy="762" grid="1" gridSize="10" guides="1" tooltips="1" connect="1" arrows="1" fold="1" page="1" pageScale="1" pageWidth="827" pageHeight="1169" math="0" shadow="0">
      <root>
        <mxCell id="0" />
        <mxCell id="1" parent="0" />
        <mxCell id="zByN_VHw-B774PRG0tDU-47" style="edgeStyle=orthogonalEdgeStyle;rounded=0;orthogonalLoop=1;jettySize=auto;html=1;exitX=0.5;exitY=1;exitDx=0;exitDy=0;entryX=0.68;entryY=-0.003;entryDx=0;entryDy=0;entryPerimeter=0;" parent="1" source="zByN_VHw-B774PRG0tDU-1" target="zByN_VHw-B774PRG0tDU-5" edge="1">
          <mxGeometry relative="1" as="geometry" />
        </mxCell>
        <mxCell id="zByN_VHw-B774PRG0tDU-1" value="" style="rounded=0;whiteSpace=wrap;html=1;fillColor=#f8cecc;strokeColor=#b85450;" parent="1" vertex="1">
          <mxGeometry x="80" y="120" width="680" height="60" as="geometry" />
        </mxCell>
        <mxCell id="zByN_VHw-B774PRG0tDU-2" value="原生App" style="rounded=1;whiteSpace=wrap;html=1;" parent="1" vertex="1">
          <mxGeometry x="110" y="135" width="120" height="30" as="geometry" />
        </mxCell>
        <mxCell id="zByN_VHw-B774PRG0tDU-3" value="H5网页" style="rounded=1;whiteSpace=wrap;html=1;" parent="1" vertex="1">
          <mxGeometry x="580" y="135" width="120" height="30" as="geometry" />
        </mxCell>
        <mxCell id="zByN_VHw-B774PRG0tDU-5" value="" style="rounded=0;whiteSpace=wrap;html=1;fillColor=#e1d5e7;strokeColor=#9673a6;" parent="1" vertex="1">
          <mxGeometry x="80" y="220" width="500" height="350" as="geometry" />
        </mxCell>
        <mxCell id="cZnmer16mFZGIxQgFDQ7-15" style="edgeStyle=orthogonalEdgeStyle;rounded=0;orthogonalLoop=1;jettySize=auto;html=1;exitX=0.5;exitY=1;exitDx=0;exitDy=0;entryX=0.5;entryY=0;entryDx=0;entryDy=0;" parent="1" source="zByN_VHw-B774PRG0tDU-7" target="zByN_VHw-B774PRG0tDU-8" edge="1">
          <mxGeometry relative="1" as="geometry" />
        </mxCell>
        <mxCell id="zByN_VHw-B774PRG0tDU-7" value="交易统一网关接入层（加解密，统一登录验证，熔断、降级、限流）" style="rounded=0;whiteSpace=wrap;html=1;fillColor=#f5f5f5;strokeColor=#666666;fontColor=#333333;" parent="1" vertex="1">
          <mxGeometry x="103" y="240" width="450" height="40" as="geometry" />
        </mxCell>
        <mxCell id="cZnmer16mFZGIxQgFDQ7-16" style="edgeStyle=orthogonalEdgeStyle;rounded=0;orthogonalLoop=1;jettySize=auto;html=1;entryX=0.5;entryY=0;entryDx=0;entryDy=0;" parent="1" source="zByN_VHw-B774PRG0tDU-8" target="zByN_VHw-B774PRG0tDU-9" edge="1">
          <mxGeometry relative="1" as="geometry" />
        </mxCell>
        <mxCell id="cZnmer16mFZGIxQgFDQ7-17" style="edgeStyle=orthogonalEdgeStyle;rounded=0;orthogonalLoop=1;jettySize=auto;html=1;exitX=0.75;exitY=1;exitDx=0;exitDy=0;entryX=0.5;entryY=0;entryDx=0;entryDy=0;" parent="1" source="zByN_VHw-B774PRG0tDU-8" target="zByN_VHw-B774PRG0tDU-11" edge="1">
          <mxGeometry relative="1" as="geometry" />
        </mxCell>
        <mxCell id="QAYfWrSoN4cxnXAoPw2Y-3" style="edgeStyle=orthogonalEdgeStyle;rounded=0;orthogonalLoop=1;jettySize=auto;html=1;exitX=0.25;exitY=1;exitDx=0;exitDy=0;entryX=0.5;entryY=0;entryDx=0;entryDy=0;" edge="1" parent="1" source="zByN_VHw-B774PRG0tDU-8" target="QAYfWrSoN4cxnXAoPw2Y-1">
          <mxGeometry relative="1" as="geometry" />
        </mxCell>
        <mxCell id="zByN_VHw-B774PRG0tDU-8" value="业务层" style="rounded=0;whiteSpace=wrap;html=1;align=left;fillColor=#f5f5f5;strokeColor=#666666;fontColor=#333333;" parent="1" vertex="1">
          <mxGeometry x="103" y="300" width="450" height="110" as="geometry" />
        </mxCell>
        <mxCell id="cZnmer16mFZGIxQgFDQ7-10" style="edgeStyle=orthogonalEdgeStyle;rounded=0;orthogonalLoop=1;jettySize=auto;html=1;entryX=0.365;entryY=-0.017;entryDx=0;entryDy=0;entryPerimeter=0;" parent="1" source="zByN_VHw-B774PRG0tDU-9" target="zByN_VHw-B774PRG0tDU-28" edge="1">
          <mxGeometry relative="1" as="geometry">
            <mxPoint x="328" y="600" as="targetPoint" />
          </mxGeometry>
        </mxCell>
        <mxCell id="zByN_VHw-B774PRG0tDU-9" value="柜台通信程序对接层" style="rounded=0;whiteSpace=wrap;html=1;fillColor=#f5f5f5;strokeColor=#666666;fontColor=#333333;" parent="1" vertex="1">
          <mxGeometry x="103" y="510" width="450" height="40" as="geometry" />
        </mxCell>
        <mxCell id="zByN_VHw-B774PRG0tDU-11" value="&lt;div&gt;&lt;span&gt;数据层&lt;/span&gt;&lt;/div&gt;" style="rounded=0;whiteSpace=wrap;html=1;align=left;fillColor=#f5f5f5;strokeColor=#666666;fontColor=#333333;" parent="1" vertex="1">
          <mxGeometry x="333" y="430" width="220" height="60" as="geometry" />
        </mxCell>
        <mxCell id="zByN_VHw-B774PRG0tDU-13" value="msyql" style="rounded=0;whiteSpace=wrap;html=1;" parent="1" vertex="1">
          <mxGeometry x="392" y="445" width="70" height="30" as="geometry" />
        </mxCell>
        <mxCell id="zByN_VHw-B774PRG0tDU-14" value="redis" style="rounded=0;whiteSpace=wrap;html=1;" parent="1" vertex="1">
          <mxGeometry x="473" y="445" width="70" height="30" as="geometry" />
        </mxCell>
        <mxCell id="zByN_VHw-B774PRG0tDU-15" value="登录" style="rounded=0;whiteSpace=wrap;html=1;" parent="1" vertex="1">
          <mxGeometry x="153" y="320" width="70" height="30" as="geometry" />
        </mxCell>
        <mxCell id="zByN_VHw-B774PRG0tDU-17" value="委托下单" style="rounded=0;whiteSpace=wrap;html=1;" parent="1" vertex="1">
          <mxGeometry x="243" y="320" width="70" height="30" as="geometry" />
        </mxCell>
        <mxCell id="zByN_VHw-B774PRG0tDU-19" value="银证转账" style="rounded=0;whiteSpace=wrap;html=1;" parent="1" vertex="1">
          <mxGeometry x="153" y="360" width="70" height="30" as="geometry" />
        </mxCell>
        <mxCell id="zByN_VHw-B774PRG0tDU-20" value="新股申购" style="rounded=0;whiteSpace=wrap;html=1;" parent="1" vertex="1">
          <mxGeometry x="243" y="360" width="70" height="30" as="geometry" />
        </mxCell>
        <mxCell id="zByN_VHw-B774PRG0tDU-21" value="场外基金" style="rounded=0;whiteSpace=wrap;html=1;" parent="1" vertex="1">
          <mxGeometry x="333" y="360" width="70" height="30" as="geometry" />
        </mxCell>
        <mxCell id="zByN_VHw-B774PRG0tDU-22" value="融资融券" style="rounded=0;whiteSpace=wrap;html=1;" parent="1" vertex="1">
          <mxGeometry x="423" y="360" width="70" height="30" as="geometry" />
        </mxCell>
        <mxCell id="zByN_VHw-B774PRG0tDU-23" value="委托查询" style="rounded=0;whiteSpace=wrap;html=1;" parent="1" vertex="1">
          <mxGeometry x="423" y="320" width="70" height="30" as="geometry" />
        </mxCell>
        <mxCell id="zByN_VHw-B774PRG0tDU-24" value="国债逆回购" style="rounded=0;whiteSpace=wrap;html=1;" parent="1" vertex="1">
          <mxGeometry x="333" y="320" width="70" height="30" as="geometry" />
        </mxCell>
        <mxCell id="zByN_VHw-B774PRG0tDU-28" value="柜台" style="rounded=0;whiteSpace=wrap;html=1;align=left;fillColor=#dae8fc;strokeColor=#6c8ebf;" parent="1" vertex="1">
          <mxGeometry x="80" y="610" width="680" height="60" as="geometry" />
        </mxCell>
        <mxCell id="zByN_VHw-B774PRG0tDU-29" value="交易交易" style="rounded=0;whiteSpace=wrap;html=1;" parent="1" vertex="1">
          <mxGeometry x="190" y="625" width="120" height="30" as="geometry" />
        </mxCell>
        <mxCell id="zByN_VHw-B774PRG0tDU-30" value="场外交易" style="rounded=0;whiteSpace=wrap;html=1;" parent="1" vertex="1">
          <mxGeometry x="335" y="625" width="120" height="30" as="geometry" />
        </mxCell>
        <mxCell id="zByN_VHw-B774PRG0tDU-31" value="业务办理" style="rounded=0;whiteSpace=wrap;html=1;" parent="1" vertex="1">
          <mxGeometry x="480" y="625" width="120" height="30" as="geometry" />
        </mxCell>
        <mxCell id="zByN_VHw-B774PRG0tDU-33" value="开户" style="rounded=0;whiteSpace=wrap;html=1;" parent="1" vertex="1">
          <mxGeometry x="620" y="625" width="120" height="30" as="geometry" />
        </mxCell>
        <mxCell id="zByN_VHw-B774PRG0tDU-34" value="行情服务" style="rounded=0;whiteSpace=wrap;html=1;fillColor=#d5e8d4;strokeColor=#82b366;" parent="1" vertex="1">
          <mxGeometry x="640" y="220" width="120" height="60" as="geometry" />
        </mxCell>
        <mxCell id="zByN_VHw-B774PRG0tDU-45" value="" style="edgeStyle=orthogonalEdgeStyle;rounded=0;orthogonalLoop=1;jettySize=auto;html=1;" parent="1" source="zByN_VHw-B774PRG0tDU-35" target="zByN_VHw-B774PRG0tDU-34" edge="1">
          <mxGeometry relative="1" as="geometry" />
        </mxCell>
        <mxCell id="cZnmer16mFZGIxQgFDQ7-13" style="edgeStyle=orthogonalEdgeStyle;rounded=0;orthogonalLoop=1;jettySize=auto;html=1;exitX=0;exitY=0.5;exitDx=0;exitDy=0;entryX=1;entryY=0.25;entryDx=0;entryDy=0;" parent="1" source="zByN_VHw-B774PRG0tDU-35" target="zByN_VHw-B774PRG0tDU-11" edge="1">
          <mxGeometry relative="1" as="geometry" />
        </mxCell>
        <mxCell id="cZnmer16mFZGIxQgFDQ7-20" style="edgeStyle=orthogonalEdgeStyle;rounded=0;orthogonalLoop=1;jettySize=auto;html=1;exitX=1;exitY=0.5;exitDx=0;exitDy=0;entryX=1;entryY=0.5;entryDx=0;entryDy=0;" parent="1" source="zByN_VHw-B774PRG0tDU-35" target="zByN_VHw-B774PRG0tDU-28" edge="1">
          <mxGeometry relative="1" as="geometry" />
        </mxCell>
        <mxCell id="zByN_VHw-B774PRG0tDU-35" value="同步服务" style="rounded=0;whiteSpace=wrap;html=1;fillColor=#d5e8d4;strokeColor=#82b366;" parent="1" vertex="1">
          <mxGeometry x="640" y="370" width="120" height="60" as="geometry" />
        </mxCell>
        <mxCell id="cZnmer16mFZGIxQgFDQ7-1" style="edgeStyle=orthogonalEdgeStyle;rounded=0;orthogonalLoop=1;jettySize=auto;html=1;entryX=1;entryY=0.5;entryDx=0;entryDy=0;" parent="1" source="zByN_VHw-B774PRG0tDU-36" target="zByN_VHw-B774PRG0tDU-11" edge="1">
          <mxGeometry relative="1" as="geometry" />
        </mxCell>
        <mxCell id="zByN_VHw-B774PRG0tDU-36" value="交易配置服务" style="rounded=0;whiteSpace=wrap;html=1;fillColor=#d5e8d4;strokeColor=#82b366;" parent="1" vertex="1">
          <mxGeometry x="640" y="510" width="120" height="60" as="geometry" />
        </mxCell>
        <mxCell id="QAYfWrSoN4cxnXAoPw2Y-4" style="edgeStyle=orthogonalEdgeStyle;rounded=0;orthogonalLoop=1;jettySize=auto;html=1;exitX=0.5;exitY=1;exitDx=0;exitDy=0;entryX=0.25;entryY=0;entryDx=0;entryDy=0;" edge="1" parent="1" source="QAYfWrSoN4cxnXAoPw2Y-1" target="zByN_VHw-B774PRG0tDU-9">
          <mxGeometry relative="1" as="geometry" />
        </mxCell>
        <mxCell id="QAYfWrSoN4cxnXAoPw2Y-1" value="柜台接口通用封装层" style="rounded=0;whiteSpace=wrap;html=1;fillColor=#f5f5f5;strokeColor=#666666;fontColor=#333333;" vertex="1" parent="1">
          <mxGeometry x="103" y="430" width="220" height="60" as="geometry" />
        </mxCell>
      </root>
    </mxGraphModel>
  </diagram>
</mxfile>
